# xmcd
#
# Track frame offsets:
#	151
#	19834
#	40567
#	65646
#	89803
#	108286
#	132539
#	150724
#	181801
#	205754
#
# Disc length: 3051 seconds
#
# Revision: 0
# Processed by: cddbd v1.5.2PL0 Copyright (c) Steve Scherf et al.
# Submitted via: EasyCDDAExtractor 16.0.9.1
#
DISCID=850be90a
DTITLE=Various Artist - Euro Heaven - 20 NRG Resurrections
DYEAR=2000
DGENRE=Euro-House
TTITLE0=Boys and Girls - Tragedy
TTITLE1=Bakerstreet - Larger Than Life (Power Mix)
TTITLE2=Iesha - Hands (Dance Remix)
TTITLE3=Red Hardin - She's All I Ever Had
TTITLE4=Kyria - That's The Way It Is (Clubby Remix)
TTITLE5=Lawrence - I Knew I Loved You (Factory Dance Mix)
TTITLE6=DB - Dov'e L'Amore
TTITLE7=Snappers - Better Off Alone (Extended Power Mix)
TTITLE8=New York Rappers - New York City Boy
TTITLE9=Nice - Why Don't You Get A Job? (A La Pinochet Mix)
EXTD=
EXTT0=
EXTT1=
EXTT2=
EXTT3=
EXTT4=
EXTT5=
EXTT6=
EXTT7=
EXTT8=
EXTT9=
PLAYORDER=
